<?xml version="1.0" standalone="no"?>
<!DOCTYPE svg PUBLIC "-//W3C//DTD SVG 20010904//EN"
 "http://www.w3.org/TR/2001/REC-SVG-20010904/DTD/svg10.dtd">
<svg version="1.0" xmlns="http://www.w3.org/2000/svg"
 width="1024.000000pt" height="1024.000000pt" viewBox="0 0 1024.000000 1024.000000"
 preserveAspectRatio="xMidYMid meet">

<g transform="translate(0.000000,1024.000000) scale(0.100000,-0.100000)"
fill="#000000" stroke="none">
<path d="M0 5120 l0 -5120 5120 0 5120 0 0 5120 0 5120 -5120 0 -5120 0 0
-5120z m3645 3961 c22 -10 94 -49 160 -88 321 -187 1289 -754 1605 -938 685
-402 765 -448 1405 -820 192 -112 252 -162 286 -238 32 -72 33 -183 1 -247
-46 -94 -53 -99 -512 -368 -103 -60 -898 -526 -1240 -727 -217 -127 -684 -401
-1037 -609 -354 -207 -658 -383 -678 -392 -53 -22 -150 -20 -217 6 -71 26
-149 98 -180 165 l-23 50 -3 1977 -2 1977 21 57 c29 76 97 149 174 185 74 36
175 40 240 10z m-363 -4953 c143 -10 239 -26 333 -55 308 -97 529 -331 595
-630 22 -100 27 -305 9 -413 -44 -277 -251 -520 -541 -634 -170 -67 -322 -86
-690 -86 l-268 0 0 -420 0 -420 -270 0 -270 0 0 1336 0 1336 500 -3 c274 -2
545 -7 602 -11z m3986 -628 c457 -120 720 -490 722 -1015 1 -401 -150 -713
-435 -900 -90 -60 -164 -93 -292 -131 -81 -25 -104 -27 -288 -30 -184 -2 -208
-1 -295 22 -157 40 -300 116 -409 219 -146 137 -241 319 -288 552 -26 131 -24
384 6 522 82 384 332 653 701 756 107 29 157 34 330 30 130 -2 183 -8 248 -25z
m-1500 14 c22 -6 22 -7 22 -226 l0 -220 -22 7 c-13 4 -71 9 -130 12 -133 6
-231 -13 -314 -63 -73 -43 -117 -91 -155 -171 -56 -118 -59 -157 -59 -799 l0
-584 -270 0 -270 0 2 1001 3 1001 247 1 247 2 7 -25 c4 -14 10 -92 13 -175 6
-144 7 -148 20 -110 21 62 60 136 94 179 62 78 197 145 332 165 72 10 201 13
233 5z"/>
<path d="M2720 3219 l0 -484 297 2 c188 2 315 7 343 14 70 18 155 67 205 118
156 158 166 474 21 675 -30 41 -128 103 -205 128 -60 19 -95 21 -363 26 l-298
4 0 -483z"/>
<path d="M6828 3091 c-76 -25 -118 -52 -175 -115 -83 -90 -145 -235 -160 -372
-12 -106 -7 -281 11 -364 60 -282 275 -448 532 -412 204 28 337 158 405 394
32 114 37 334 10 457 -43 193 -136 329 -270 393 -60 29 -76 32 -181 35 -92 2
-126 -1 -172 -16z"/>
</g>
</svg>
